<svg xmlns="http://www.w3.org/2000/svg" viewBox="0 0 32 32" fill="none">
  <!-- Background circle (optional - transparent by default) -->
  <circle cx="16" cy="16" r="15" fill="#FAF7F5"/>

  <!-- Sparkles icon in terracotta -->
  <g stroke="#C07459" stroke-width="1.5" stroke-linecap="round" stroke-linejoin="round">
    <!-- Main sparkle -->
    <path d="M13.3 21.67A2.67 2.67 0 0 0 11.33 19.7l-8.18-2.1a.67.67 0 0 1 0-1.28l8.18-2.11A2.67 2.67 0 0 0 13.3 12.23l2.1-8.18a.67.67 0 0 1 1.28 0l2.11 8.18a2.67 2.67 0 0 0 1.92 1.92l8.18 2.11a.67.67 0 0 1 0 1.28l-8.18 2.1a2.67 2.67 0 0 0-1.92 1.92l-2.11 8.18a.67.67 0 0 1-1.28 0z"/>
    <!-- Small decorative elements -->
    <path d="M26.67 4v5.33"/>
    <path d="M29.33 6.67h-5.33"/>
    <path d="M5.33 22.67v2.67"/>
    <path d="M6.67 24H4"/>
  </g>
</svg>
